<svg width="759" height="169" viewBox="0 0 759 169" fill="none" xmlns="http://www.w3.org/2000/svg">
<g filter="url(#filter0_d_1_5)">
<g filter="url(#filter1_d_1_5)">
<rect x="47.782" y="36" width="657.436" height="80" rx="10" fill="#323232"/>
</g>
<path d="M139.189 64.8202V89.4872H134.055V78.8622H123.192V89.4872H118.058V64.8202H123.192V75.2922H134.055V64.8202H139.189ZM157.377 80.1202L154.708 72.5722C154.55 72.1755 154.38 71.7108 154.198 71.1782C154.028 70.6455 153.864 70.0675 153.705 69.4442C153.547 70.0788 153.377 70.6682 153.195 71.2122C153.025 71.7448 152.861 72.2095 152.702 72.6062L150.05 80.1202H157.377ZM165.945 89.4872H161.984C161.542 89.4872 161.18 89.3852 160.896 89.1812C160.624 88.9658 160.42 88.6938 160.284 88.3652L158.618 83.6562H148.792L147.126 88.3652C147.013 88.6485 146.815 88.9092 146.531 89.1472C146.248 89.3738 145.891 89.4872 145.46 89.4872H141.465L151.104 64.8202H156.323L165.945 89.4872ZM176.558 77.0942C178.156 77.0942 179.324 76.7088 180.06 75.9382C180.808 75.1675 181.182 74.1135 181.182 72.7762C181.182 72.1642 181.086 71.6088 180.893 71.1102C180.712 70.6002 180.429 70.1695 180.043 69.8182C179.669 69.4555 179.193 69.1778 178.615 68.9852C178.037 68.7925 177.352 68.6962 176.558 68.6962H173.328V77.0942H176.558ZM176.558 64.8202C178.247 64.8202 179.703 65.0185 180.927 65.4152C182.163 65.8118 183.177 66.3672 183.97 67.0812C184.764 67.7838 185.347 68.6225 185.721 69.5972C186.107 70.5718 186.299 71.6315 186.299 72.7762C186.299 73.9888 186.101 75.0995 185.704 76.1082C185.308 77.1168 184.707 77.9838 183.902 78.7092C183.098 79.4345 182.083 80.0012 180.859 80.4092C179.635 80.8058 178.202 81.0042 176.558 81.0042H173.328V89.4872H168.228V64.8202H176.558ZM197.875 77.0942C199.473 77.0942 200.64 76.7088 201.377 75.9382C202.125 75.1675 202.499 74.1135 202.499 72.7762C202.499 72.1642 202.402 71.6088 202.21 71.1102C202.028 70.6002 201.745 70.1695 201.36 69.8182C200.986 69.4555 200.51 69.1778 199.932 68.9852C199.354 68.7925 198.668 68.6962 197.875 68.6962H194.645V77.0942H197.875ZM197.875 64.8202C199.563 64.8202 201.02 65.0185 202.244 65.4152C203.479 65.8118 204.493 66.3672 205.287 67.0812C206.08 67.7838 206.664 68.6225 207.038 69.5972C207.423 70.5718 207.616 71.6315 207.616 72.7762C207.616 73.9888 207.417 75.0995 207.021 76.1082C206.624 77.1168 206.023 77.9838 205.219 78.7092C204.414 79.4345 203.4 80.0012 202.176 80.4092C200.952 80.8058 199.518 81.0042 197.875 81.0042H194.645V89.4872H189.545V64.8202H197.875ZM221.349 80.0012V89.4872H216.249V80.0012L207.29 64.8202H211.778C212.22 64.8202 212.571 64.9278 212.832 65.1432C213.104 65.3472 213.319 65.6135 213.478 65.9422L217.524 73.7112C217.796 74.2325 218.04 74.7198 218.255 75.1732C218.482 75.6265 218.68 76.0798 218.85 76.5332C219.009 76.0798 219.19 75.6265 219.394 75.1732C219.609 74.7085 219.847 74.2212 220.108 73.7112L224.12 65.9422C224.256 65.6702 224.46 65.4152 224.732 65.1772C225.004 64.9392 225.355 64.8202 225.786 64.8202H230.308L221.349 80.0012ZM248.045 80.6472C248.045 82.0298 247.875 83.2822 247.535 84.4042C247.195 85.5148 246.679 86.4725 245.988 87.2772C245.308 88.0705 244.452 88.6825 243.421 89.1132C242.39 89.5438 241.188 89.7592 239.817 89.7592C239.194 89.7592 238.576 89.7195 237.964 89.6402C237.363 89.5722 236.729 89.4588 236.06 89.3002C236.105 88.8015 236.151 88.3028 236.196 87.8042C236.241 87.3055 236.287 86.8068 236.332 86.3082C236.366 86.0362 236.474 85.8208 236.655 85.6622C236.836 85.4922 237.097 85.4072 237.437 85.4072C237.63 85.4072 237.873 85.4412 238.168 85.5092C238.474 85.5772 238.848 85.6112 239.29 85.6112C239.902 85.6112 240.435 85.5262 240.888 85.3562C241.341 85.1862 241.721 84.9085 242.027 84.5232C242.333 84.1378 242.56 83.6392 242.707 83.0272C242.866 82.4038 242.945 81.6502 242.945 80.7662V64.8202H248.045V80.6472ZM276.797 77.1452C276.797 78.9472 276.491 80.6188 275.879 82.1602C275.278 83.7015 274.422 85.0332 273.312 86.1552C272.212 87.2772 270.886 88.1612 269.334 88.8072C267.781 89.4418 266.058 89.7592 264.166 89.7592C262.273 89.7592 260.55 89.4418 258.998 88.8072C257.445 88.1612 256.113 87.2772 255.003 86.1552C253.892 85.0332 253.031 83.7015 252.419 82.1602C251.818 80.6188 251.518 78.9472 251.518 77.1452C251.518 75.3432 251.818 73.6772 252.419 72.1472C253.031 70.6058 253.892 69.2742 255.003 68.1522C256.113 67.0302 257.445 66.1518 258.998 65.5172C260.55 64.8712 262.273 64.5482 264.166 64.5482C266.058 64.5482 267.781 64.8712 269.334 65.5172C270.886 66.1518 272.212 67.0358 273.312 68.1692C274.422 69.2912 275.278 70.6228 275.879 72.1642C276.491 73.6942 276.797 75.3545 276.797 77.1452ZM271.578 77.1452C271.578 75.8532 271.408 74.6972 271.068 73.6772C270.728 72.6458 270.235 71.7732 269.589 71.0592C268.954 70.3338 268.178 69.7842 267.26 69.4102C266.353 69.0248 265.322 68.8322 264.166 68.8322C263.01 68.8322 261.973 69.0248 261.055 69.4102C260.137 69.7842 259.355 70.3338 258.709 71.0592C258.074 71.7732 257.587 72.6458 257.247 73.6772C256.907 74.6972 256.737 75.8532 256.737 77.1452C256.737 78.4485 256.907 79.6158 257.247 80.6472C257.587 81.6672 258.074 82.5342 258.709 83.2482C259.355 83.9622 260.137 84.5118 261.055 84.8972C261.973 85.2712 263.01 85.4582 264.166 85.4582C265.322 85.4582 266.353 85.2712 267.26 84.8972C268.178 84.5118 268.954 83.9622 269.589 83.2482C270.235 82.5342 270.728 81.6672 271.068 80.6472C271.408 79.6158 271.578 78.4485 271.578 77.1452ZM290.619 85.4072C291.447 85.4072 292.189 85.2712 292.846 84.9992C293.504 84.7158 294.059 84.3192 294.512 83.8092C294.966 83.2992 295.311 82.6815 295.549 81.9562C295.787 81.2308 295.906 80.4148 295.906 79.5082V64.8202H301.006V79.5082C301.006 81.0042 300.763 82.3812 300.275 83.6392C299.799 84.8858 299.114 85.9625 298.218 86.8692C297.323 87.7758 296.235 88.4842 294.954 88.9942C293.674 89.5042 292.229 89.7592 290.619 89.7592C289.01 89.7592 287.559 89.5042 286.267 88.9942C284.987 88.4842 283.899 87.7758 283.003 86.8692C282.108 85.9625 281.417 84.8858 280.929 83.6392C280.453 82.3812 280.215 81.0042 280.215 79.5082V64.8202H285.315V79.5082C285.315 80.4148 285.434 81.2308 285.672 81.9562C285.91 82.6815 286.256 83.2992 286.709 83.8092C287.163 84.3192 287.718 84.7158 288.375 84.9992C289.033 85.2712 289.781 85.4072 290.619 85.4072ZM313.573 76.4992C314.401 76.4992 315.115 76.3972 315.715 76.1932C316.316 75.9778 316.809 75.6888 317.194 75.3262C317.58 74.9522 317.863 74.5158 318.044 74.0172C318.226 73.5185 318.316 72.9745 318.316 72.3852C318.316 71.2178 317.925 70.3112 317.143 69.6652C316.373 69.0192 315.194 68.6962 313.607 68.6962H310.955V76.4992H313.573ZM325.524 89.4872H320.917C320.056 89.4872 319.433 89.1585 319.047 88.5012L314.355 80.9362C314.163 80.6415 313.947 80.4262 313.709 80.2902C313.483 80.1542 313.143 80.0862 312.689 80.0862H310.955V89.4872H305.855V64.8202H313.607C315.33 64.8202 316.803 65.0015 318.027 65.3642C319.251 65.7155 320.254 66.2085 321.036 66.8432C321.818 67.4778 322.391 68.2372 322.753 69.1212C323.116 69.9938 323.297 70.9572 323.297 72.0112C323.297 72.8272 323.178 73.6035 322.94 74.3402C322.714 75.0655 322.379 75.7285 321.937 76.3292C321.495 76.9298 320.951 77.4625 320.305 77.9272C319.659 78.3918 318.923 78.7658 318.095 79.0492C318.424 79.2305 318.73 79.4515 319.013 79.7122C319.297 79.9615 319.552 80.2618 319.778 80.6132L325.524 89.4872ZM349.066 64.8202V89.4872H346.431C346.035 89.4872 345.7 89.4248 345.428 89.3002C345.156 89.1642 344.89 88.9375 344.629 88.6202L332.338 72.9802C332.372 73.3768 332.395 73.7678 332.406 74.1532C332.429 74.5385 332.44 74.8955 332.44 75.2242V89.4872H327.935V64.8202H330.621C330.837 64.8202 331.018 64.8315 331.165 64.8542C331.324 64.8655 331.466 64.9052 331.59 64.9732C331.715 65.0298 331.834 65.1092 331.947 65.2112C332.061 65.3132 332.185 65.4492 332.321 65.6192L344.697 81.3272C344.652 80.8965 344.618 80.4828 344.595 80.0862C344.573 79.6782 344.561 79.2928 344.561 78.9302V64.8202H349.066ZM359.366 68.8152V75.1562H367.594V79.0152H359.366V85.4922H369.94V89.4872H354.232V64.8202H369.94V68.8152H359.366ZM384.908 80.0012V89.4872H379.808V80.0012L370.849 64.8202H375.337C375.779 64.8202 376.13 64.9278 376.391 65.1432C376.663 65.3472 376.878 65.6135 377.037 65.9422L381.083 73.7112C381.355 74.2325 381.598 74.7198 381.814 75.1732C382.04 75.6265 382.239 76.0798 382.409 76.5332C382.567 76.0798 382.749 75.6265 382.953 75.1732C383.168 74.7085 383.406 74.2212 383.667 73.7112L387.679 65.9422C387.815 65.6702 388.019 65.4152 388.291 65.1772C388.563 64.9392 388.914 64.8202 389.345 64.8202H393.867L384.908 80.0012ZM412.277 85.5772C413.093 85.5772 413.762 85.4808 414.283 85.2882C414.816 85.0842 415.241 84.8178 415.558 84.4892C415.876 84.1605 416.097 83.7865 416.221 83.3672C416.346 82.9365 416.408 82.4945 416.408 82.0412C416.408 81.5425 416.335 81.0948 416.187 80.6982C416.04 80.3015 415.802 79.9672 415.473 79.6952C415.145 79.4118 414.714 79.1965 414.181 79.0492C413.66 78.9018 413.014 78.8282 412.243 78.8282H407.908V85.5772H412.277ZM407.908 68.6962V75.3602H411.257C411.971 75.3602 412.606 75.3035 413.161 75.1902C413.717 75.0655 414.181 74.8728 414.555 74.6122C414.929 74.3515 415.213 74.0115 415.405 73.5922C415.609 73.1615 415.711 72.6458 415.711 72.0452C415.711 71.4332 415.626 70.9118 415.456 70.4812C415.298 70.0505 415.048 69.7048 414.708 69.4442C414.368 69.1835 413.938 68.9965 413.416 68.8832C412.895 68.7585 412.277 68.6962 411.563 68.6962H407.908ZM411.563 64.8202C413.218 64.8202 414.629 64.9788 415.796 65.2962C416.975 65.6022 417.933 66.0442 418.669 66.6222C419.417 67.1888 419.961 67.8802 420.301 68.6962C420.641 69.5122 420.811 70.4245 420.811 71.4332C420.811 71.9998 420.726 72.5438 420.556 73.0652C420.398 73.5865 420.143 74.0795 419.791 74.5442C419.451 74.9975 419.009 75.4112 418.465 75.7852C417.921 76.1592 417.275 76.4765 416.527 76.7372C418.205 77.1338 419.446 77.7798 420.25 78.6752C421.055 79.5705 421.457 80.7322 421.457 82.1602C421.457 83.2028 421.253 84.1718 420.845 85.0672C420.449 85.9625 419.865 86.7388 419.094 87.3962C418.324 88.0535 417.372 88.5692 416.238 88.9432C415.116 89.3058 413.824 89.4872 412.362 89.4872H402.808V64.8202H411.563ZM437.977 80.1202L435.308 72.5722C435.149 72.1755 434.979 71.7108 434.798 71.1782C434.628 70.6455 434.464 70.0675 434.305 69.4442C434.146 70.0788 433.976 70.6682 433.795 71.2122C433.625 71.7448 433.461 72.2095 433.302 72.6062L430.65 80.1202H437.977ZM446.545 89.4872H442.584C442.142 89.4872 441.779 89.3852 441.496 89.1812C441.224 88.9658 441.02 88.6938 440.884 88.3652L439.218 83.6562H429.392L427.726 88.3652C427.613 88.6485 427.414 88.9092 427.131 89.1472C426.848 89.3738 426.491 89.4872 426.06 89.4872H422.065L431.704 64.8202H436.923L446.545 89.4872ZM469.959 64.8202V89.4872H467.324C466.927 89.4872 466.593 89.4248 466.321 89.3002C466.049 89.1642 465.783 88.9375 465.522 88.6202L453.231 72.9802C453.265 73.3768 453.288 73.7678 453.299 74.1532C453.322 74.5385 453.333 74.8955 453.333 75.2242V89.4872H448.828V64.8202H451.514C451.729 64.8202 451.911 64.8315 452.058 64.8542C452.217 64.8655 452.358 64.9052 452.483 64.9732C452.608 65.0298 452.727 65.1092 452.84 65.2112C452.953 65.3132 453.078 65.4492 453.214 65.6192L465.59 81.3272C465.545 80.8965 465.511 80.4828 465.488 80.0862C465.465 79.6782 465.454 79.2928 465.454 78.9302V64.8202H469.959ZM487.127 76.9242H495.593V87.1072C494.335 88.0252 492.992 88.6995 491.564 89.1302C490.147 89.5495 488.645 89.7592 487.059 89.7592C485.03 89.7592 483.194 89.4475 481.551 88.8242C479.907 88.1895 478.502 87.3112 477.335 86.1892C476.167 85.0672 475.266 83.7355 474.632 82.1942C473.997 80.6528 473.68 78.9698 473.68 77.1452C473.68 75.2978 473.98 73.6035 474.581 72.0622C475.193 70.5208 476.06 69.1948 477.182 68.0842C478.304 66.9735 479.658 66.1065 481.245 65.4832C482.843 64.8598 484.628 64.5482 486.6 64.5482C487.62 64.5482 488.572 64.6332 489.456 64.8032C490.34 64.9618 491.156 65.1885 491.904 65.4832C492.652 65.7665 493.337 66.1065 493.961 66.5032C494.584 66.8998 495.151 67.3362 495.661 67.8122L494.182 70.0902C493.955 70.4528 493.66 70.6738 493.298 70.7532C492.935 70.8325 492.538 70.7418 492.108 70.4812C491.7 70.2318 491.297 70.0108 490.901 69.8182C490.515 69.6142 490.102 69.4385 489.66 69.2912C489.218 69.1438 488.736 69.0305 488.215 68.9512C487.693 68.8718 487.093 68.8322 486.413 68.8322C485.268 68.8322 484.231 69.0305 483.302 69.4272C482.372 69.8238 481.579 70.3848 480.922 71.1102C480.276 71.8355 479.777 72.7082 479.426 73.7282C479.074 74.7482 478.899 75.8872 478.899 77.1452C478.899 78.5052 479.091 79.7235 479.477 80.8002C479.862 81.8655 480.406 82.7665 481.109 83.5032C481.811 84.2398 482.65 84.8008 483.625 85.1862C484.611 85.5715 485.704 85.7642 486.906 85.7642C487.722 85.7642 488.447 85.6848 489.082 85.5262C489.728 85.3562 490.357 85.1295 490.969 84.8462V80.6982H488.181C487.852 80.6982 487.591 80.6132 487.399 80.4432C487.217 80.2618 487.127 80.0352 487.127 79.7632V76.9242ZM514.398 85.3392V89.4872H499.761V64.8202H504.861V85.3392H514.398ZM530.547 80.1202L527.878 72.5722C527.719 72.1755 527.549 71.7108 527.368 71.1782C527.198 70.6455 527.034 70.0675 526.875 69.4442C526.716 70.0788 526.546 70.6682 526.365 71.2122C526.195 71.7448 526.031 72.2095 525.872 72.6062L523.22 80.1202H530.547ZM539.115 89.4872H535.154C534.712 89.4872 534.349 89.3852 534.066 89.1812C533.794 88.9658 533.59 88.6938 533.454 88.3652L531.788 83.6562H521.962L520.296 88.3652C520.183 88.6485 519.984 88.9092 519.701 89.1472C519.418 89.3738 519.061 89.4872 518.63 89.4872H514.635L524.274 64.8202H529.493L539.115 89.4872ZM563.515 77.1452C563.515 78.9472 563.209 80.6075 562.597 82.1262C561.997 83.6335 561.141 84.9312 560.03 86.0192C558.931 87.1072 557.605 87.9572 556.052 88.5692C554.5 89.1812 552.777 89.4872 550.884 89.4872H541.398V64.8202H550.884C552.777 64.8202 554.5 65.1262 556.052 65.7382C557.605 66.3502 558.931 67.2058 560.03 68.3052C561.141 69.3932 561.997 70.6908 562.597 72.1982C563.209 73.7055 563.515 75.3545 563.515 77.1452ZM558.279 77.1452C558.279 75.8532 558.109 74.6915 557.769 73.6602C557.429 72.6288 556.942 71.7562 556.307 71.0422C555.673 70.3282 554.896 69.7785 553.978 69.3932C553.072 69.0078 552.04 68.8152 550.884 68.8152H546.532V85.4922H550.884C552.04 85.4922 553.072 85.3052 553.978 84.9312C554.896 84.5458 555.673 83.9962 556.307 83.2822C556.942 82.5568 557.429 81.6785 557.769 80.6472C558.109 79.6158 558.279 78.4485 558.279 77.1452ZM572.397 68.8152V75.1562H580.625V79.0152H572.397V85.4922H582.971V89.4872H567.263V64.8202H582.971V68.8152H572.397ZM600.149 69.5462C599.99 69.8068 599.826 69.9995 599.656 70.1242C599.497 70.2375 599.288 70.2942 599.027 70.2942C598.778 70.2942 598.506 70.2092 598.211 70.0392C597.928 69.8578 597.593 69.6652 597.208 69.4612C596.823 69.2572 596.381 69.0702 595.882 68.9002C595.383 68.7188 594.8 68.6282 594.131 68.6282C592.952 68.6282 592.068 68.8945 591.479 69.4272C590.89 69.9485 590.595 70.6342 590.595 71.4842C590.595 72.0282 590.754 72.4815 591.071 72.8442C591.4 73.1955 591.825 73.5015 592.346 73.7622C592.879 74.0228 593.479 74.2552 594.148 74.4592C594.817 74.6632 595.502 74.8898 596.205 75.1392C596.908 75.3772 597.593 75.6605 598.262 75.9892C598.931 76.3178 599.526 76.7315 600.047 77.2302C600.58 77.7288 601.005 78.3408 601.322 79.0662C601.651 79.7802 601.815 80.6528 601.815 81.6842C601.815 82.8062 601.617 83.8602 601.22 84.8462C600.835 85.8208 600.274 86.6765 599.537 87.4132C598.8 88.1385 597.888 88.7108 596.8 89.1302C595.723 89.5495 594.499 89.7592 593.128 89.7592C592.346 89.7592 591.564 89.6798 590.782 89.5212C590.011 89.3625 589.263 89.1415 588.538 88.8582C587.824 88.5748 587.15 88.2348 586.515 87.8382C585.88 87.4415 585.325 86.9995 584.849 86.5122L586.345 84.0982C586.47 83.9168 586.634 83.7695 586.838 83.6562C587.042 83.5315 587.257 83.4692 587.484 83.4692C587.79 83.4692 588.113 83.5825 588.453 83.8092C588.793 84.0358 589.184 84.2852 589.626 84.5572C590.068 84.8292 590.578 85.0785 591.156 85.3052C591.745 85.5318 592.448 85.6452 593.264 85.6452C594.454 85.6452 595.372 85.3732 596.018 84.8292C596.675 84.2852 597.004 83.4748 597.004 82.3982C597.004 81.7748 596.84 81.2705 596.511 80.8852C596.194 80.4998 595.774 80.1768 595.253 79.9162C594.732 79.6555 594.137 79.4345 593.468 79.2532C592.799 79.0605 592.114 78.8508 591.411 78.6242C590.708 78.3975 590.023 78.1255 589.354 77.8082C588.685 77.4908 588.09 77.0715 587.569 76.5502C587.048 76.0288 586.623 75.3828 586.294 74.6122C585.977 73.8415 585.818 72.8838 585.818 71.7392C585.818 70.8212 585.999 69.9315 586.362 69.0702C586.725 68.2088 587.257 67.4438 587.96 66.7752C588.663 66.1065 589.524 65.5682 590.544 65.1602C591.575 64.7522 592.754 64.5482 594.08 64.5482C595.565 64.5482 596.936 64.7805 598.194 65.2452C599.463 65.6985 600.534 66.3332 601.407 67.1492L600.149 69.5462ZM626.644 64.8202V89.4872H621.51V78.8622H610.647V89.4872H605.513V64.8202H610.647V75.2922H621.51V64.8202H626.644Z" fill="white"/>
</g>
<defs>
<filter id="filter0_d_1_5" x="0.782043" y="-11" width="757.436" height="180" filterUnits="userSpaceOnUse" color-interpolation-filters="sRGB">
<feFlood flood-opacity="0" result="BackgroundImageFix"/>
<feColorMatrix in="SourceAlpha" type="matrix" values="0 0 0 0 0 0 0 0 0 0 0 0 0 0 0 0 0 0 127 0" result="hardAlpha"/>
<feOffset dx="3" dy="3"/>
<feGaussianBlur stdDeviation="25"/>
<feComposite in2="hardAlpha" operator="out"/>
<feColorMatrix type="matrix" values="0 0 0 0 0 0 0 0 0 0 0 0 0 0 0 0 0 0 0.25 0"/>
<feBlend mode="normal" in2="BackgroundImageFix" result="effect1_dropShadow_1_5"/>
<feBlend mode="normal" in="SourceGraphic" in2="effect1_dropShadow_1_5" result="shape"/>
</filter>
<filter id="filter1_d_1_5" x="43.782" y="36" width="665.436" height="88" filterUnits="userSpaceOnUse" color-interpolation-filters="sRGB">
<feFlood flood-opacity="0" result="BackgroundImageFix"/>
<feColorMatrix in="SourceAlpha" type="matrix" values="0 0 0 0 0 0 0 0 0 0 0 0 0 0 0 0 0 0 127 0" result="hardAlpha"/>
<feOffset dy="4"/>
<feGaussianBlur stdDeviation="2"/>
<feComposite in2="hardAlpha" operator="out"/>
<feColorMatrix type="matrix" values="0 0 0 0 0 0 0 0 0 0 0 0 0 0 0 0 0 0 0.25 0"/>
<feBlend mode="normal" in2="BackgroundImageFix" result="effect1_dropShadow_1_5"/>
<feBlend mode="normal" in="SourceGraphic" in2="effect1_dropShadow_1_5" result="shape"/>
</filter>
</defs>
</svg>
